:SAMPLES-PER-SECOND 30
:FULLY-SPECIFIED
:DEGREES
1
root  34.89948183 36.5476383 -14.64979667 9.524160385 -4.149981022 2.969935894
lowerback  -8.850410461 -0.1304770857 -0.1601394713
upperback  -3.75928998 0.2888219953 -3.076989889
thorax  1.083459973 0.2981590033 -3.060090065
lowerneck  -14.83749962 -4.395979881 -3.371079922
upperneck  15.79810047 -6.218700409 6.389949799
head  7.625249863 -2.46442008 1.981619954
lclavicle  0 -4.497500157e-015 -2.743230041e-014
lhumerus  -47.99560165 30.88489914 63.25490189
lradius  0.00954947155 -6.507048965e-006 29.55529976
lwrist  3.192251654e-007 -3.790274832e-007 -28.38709831
lhand  -3.541078858e-031 -36.85710144 -10.38479996
lfingers  90 7.125020027 -90
lthumb  94.73460388 -25.22747421 100.9968491
rclavicle  0 -4.497500157e-015 -2.743230041e-014
rhumerus  -56.97969818 -46.32550049 -40.70299911
rradius  -5.16745672e-007 2.214343908e-008 35.34320068
rwrist  0.0006954420824 -0.004670973402 -139.0169983
rhand  -3.018406318e-031 -2.854949951 -7.66711998
rfingers  -90 -7.125020027 -90
rthumb  -86.61206818 -7.981945038 -66.91036224
rfemur  -12.54994965 15.93183422 13.0244875
rtibia  -0.5255067348 -0.5503473878 19.8613472
rfoot  0.4015822709 -21.23017883 -36.75117111
rtoes  4.138733864 19.58426476 -102.1819
lfemur  -8.712217331 -15.86528397 -19.45939636
ltibia  2.326100349 0.1271491796 14.43228722
lfoot  0.4320036769 -25.32741928 35.95146179
ltoes  -8.726770401 -18.06454468 -116.3255386
2
root  34.89948183 36.5476383 -14.64979667 9.524160385 -4.149981022 2.985865355
lowerback  -8.850410461 -0.1173530146 -0.1333580613
upperback  -3.75928998 0.3054479957 -3.097460032
thorax  1.083459973 0.2981590033 -3.09491992
lowerneck  -14.8434 -4.414579868 -3.393599987
upperneck  15.79810047 -6.246790409 6.436359882
head  7.628859997 -2.47420001 1.997289896
lclavicle  0 -4.497500157e-015 -2.743230041e-014
lhumerus  -47.95930099 30.85689926 63.26670074
lradius  0.00954947155 -6.507048965e-006 29.55529976
lwrist  3.192251654e-007 -3.790274832e-007 -28.45269966
lhand  -3.536459574e-031 -36.86159897 -10.43980026
lfingers  90 7.125020027 -90
lthumb  94.74829102 -25.28130341 101.0065842
rclavicle  0 -4.497500157e-015 -2.743230041e-014
rhumerus  -56.6577034 -46.01530075 -41.1750946
rradius  -5.16745672e-007 2.214343908e-008 35.60710144
rwrist  0.0006954420824 -0.004670973402 -138.9019928
rhand  -3.022129482e-031 -2.975209951 -7.610770226
rfingers  -90 -7.125020027 -90
rthumb  -86.61159515 -8.027599335 -67.02436829
rfemur  -12.55486774 15.94744587 13.01145363
rtibia  -0.5395092964 -0.5563327074 19.8611927
rfoot  0.4015822709 -21.21229362 -36.78705215
rtoes  4.186268806 19.57453918 -102.3237457
lfemur  -8.711054802 -15.82358837 -19.48313522
ltibia  2.35841608 0.1433307678 14.42861843
lfoot  0.4730552137 -25.36984444 35.96133804
ltoes  -8.726770401 -18.06454468 -116.3342743
3
root  34.89948183 36.5476383 -14.64979667 9.519236565 -4.149981022 3.004930019
lowerback  -8.85144043 -0.1145749539 -0.1191849783
upperback  -3.75928998 0.3078359962 -3.097300053
thorax  1.084130049 0.2981590033 -3.10255003
lowerneck  -14.8739996 -4.434889793 -3.430370092
upperneck  15.80770016 -6.270199776 6.452640057
head  7.640399933 -2.48548007 2.005409956
lclavicle  0 -4.497500157e-015 -2.743230041e-014
lhumerus  -47.94580078 30.85110092 63.30160141
lradius  0.00954947155 -6.507048965e-006 29.55529976
lwrist  3.192251654e-007 -3.790274832e-007 -28.43219757
lhand  -3.531037873e-031 -36.84140015 -10.50790024
lfingers  90 7.125020027 -90
lthumb  94.75327301 -25.34888458 100.9911423
rclavicle  0 -4.497500157e-015 -2.743230041e-014
rhumerus  -56.373703 -45.75579834 -41.57629776
rradius  -5.16745672e-007 2.214343908e-008 35.8103981
rwrist  0.0006954420824 -0.004670973402 -139.1430054
rhand  -3.023995698e-031 -2.884380102 -7.58355999
rfingers  -90 -7.125020027 -90
rthumb  -86.58434296 -8.057315826 -66.9344635
rfemur  -12.51457024 15.92687607 12.9875145
rtibia  -0.5386730433 -0.6075065136 19.81057167
rfoot  0.4130946398 -21.28083038 -36.78772736
rtoes  4.133481979 19.58533287 -102.1662292
lfemur  -8.724493027 -15.85133553 -19.51521683
ltibia  2.37024951 0.1008815393 14.46882439
lfoot  0.4902437925 -25.31086922 35.95466995
ltoes  -8.730317116 -18.06454468 -116.3457108
4
root  34.89957194 36.54817596 -14.64905927 9.503288269 -4.160197735 2.995225906
lowerback  -8.886440277 -0.1226719469 -0.1591442674
upperback  -3.756560087 0.3019250035 -3.095010042
thorax  1.105839968 0.2981590033 -3.078130007
lowerneck  -14.87919998 -4.449160099 -3.475850105
upperneck  15.77420044 -6.285779953 6.489140034
head  7.633850098 -2.493370056 2.022850037
lclavicle  0 -4.497500157e-015 -2.743230041e-014
lhumerus  -47.93880081 30.89069939 63.3083992
lradius  0.00954947155 -6.507048965e-006 29.55529976
lwrist  3.192251654e-007 -3.790274832e-007 -28.49169922
lhand  -3.539596488e-031 -36.8451004 -10.40429974
lfingers  90 7.125020027 -90
lthumb  94.7331543 -25.24698448 100.9857864
rclavicle  0 -4.497500157e-015 -2.743230041e-014
rhumerus  -56.08820343 -45.46350098 -41.98249435
rradius  -5.16745672e-007 2.214343908e-008 36.01060104
rwrist  0.0006954420824 -0.004670973402 -139.8339996
rhand  -3.020280078e-031 -2.865639925 -7.639100075
rfingers  -90 -7.125020027 -90
rthumb  -86.60289764 -8.007206917 -66.91926575
rfemur  -12.46604919 15.93756008 12.99269009
rtibia  -0.5235893726 -0.6230998635 19.7553997
rfoot  0.4300577044 -21.30932045 -36.79473877
rtoes  4.116659164 19.58874321 -102.1160507
lfemur  -8.749848366 -15.86180115 -19.49575043
ltibia  2.328054667 0.0824714303 14.5362339
lfoot  0.4784927368 -25.31143951 35.93591309
ltoes  -8.709355354 -18.07439995 -116.2781296
